<svg width="48" height="48" viewBox="0 0 48 48" fill="none" xmlns="http://www.w3.org/2000/svg">
<path fill-rule="evenodd" clip-rule="evenodd" d="M15.3948 23.3806C14.3548 23.2406 13.3348 23.0206 12.3348 22.6806C11.5348 22.4206 10.7548 22.0806 10.0148 21.5806C9.81476 21.4606 9.63476 21.3006 9.41476 21.1406V25.8606C9.39476 26.4406 9.55476 26.9006 9.87476 27.2806C10.3348 27.8606 10.8948 28.2206 11.4948 28.5206C12.3548 28.9606 13.2548 29.2406 14.1748 29.4606C15.0748 29.6606 15.9748 29.7806 16.8748 29.8406C17.4348 29.8806 17.9948 29.9006 18.5548 29.8806C18.5748 28.4806 18.5748 26.5406 18.5748 26.0406L18.5548 23.5606C17.5148 23.6006 16.4548 23.5206 15.3948 23.3806Z" fill="#A90730"/>
<path fill-rule="evenodd" clip-rule="evenodd" d="M15.0745 31.9808C14.2545 31.8408 13.4345 31.6608 12.6345 31.4408C11.6945 31.1808 10.7945 30.7808 9.93453 30.1808C9.77453 30.0608 9.59453 29.9408 9.41453 29.8008C9.41453 29.9008 9.41453 33.0008 9.39453 34.4608C9.39453 35.1608 9.61453 35.6608 9.99453 36.0808C10.4345 36.5808 10.9545 36.9008 11.4945 37.1808C12.4745 37.6608 13.4745 37.9608 14.4945 38.1608C15.4545 38.3608 16.4345 38.4608 17.4145 38.5008C17.7945 38.5208 18.1745 38.5208 18.5545 38.5208C18.5745 37.2208 18.5745 34.6608 18.5745 34.0408V32.2008C18.3745 32.2208 18.1545 32.2208 17.9545 32.2208C16.9945 32.2208 16.0345 32.1608 15.0745 31.9808Z" fill="#A90730"/>
<path fill-rule="evenodd" clip-rule="evenodd" d="M24.9748 16.1611C25.6548 16.0211 26.3348 15.9011 27.0348 15.8211V12.6211C26.8348 12.7811 26.6548 12.9011 26.4748 13.0411C25.0348 13.9811 23.4948 14.4211 21.9148 14.7211C21.1748 14.8411 20.4348 14.9211 19.6948 14.9811C18.2548 15.1011 16.8348 15.0611 15.3948 14.8611C14.3548 14.7211 13.3348 14.5011 12.3348 14.1611C11.5348 13.9011 10.7548 13.5611 10.0148 13.0611C9.81476 12.9211 9.63476 12.7811 9.41476 12.6211V17.3411C9.39476 17.9011 9.55476 18.3611 9.87476 18.7611C10.3348 19.3411 10.8948 19.7011 11.4948 20.0011C12.3548 20.4411 13.2548 20.7211 14.1748 20.9411C15.0748 21.1411 15.9748 21.2611 16.8748 21.3211C17.4548 21.3611 18.0348 21.3811 18.5948 21.3611C18.6148 20.7011 18.8148 19.9211 19.3948 19.1611C20.0548 18.3011 20.8148 17.8011 21.4148 17.4611C22.4348 16.9011 23.5748 16.4811 24.9748 16.1611Z" fill="#A90730"/>
<path fill-rule="evenodd" clip-rule="evenodd" d="M9.97838 10.2616C10.4864 10.8356 11.0884 11.1916 11.7124 11.4876C12.8404 12.0236 14.0124 12.3156 15.1984 12.5056C16.2024 12.6676 17.2104 12.7476 18.0224 12.7336C19.9184 12.7356 21.5984 12.5456 23.2544 12.0536C24.0804 11.8076 24.8844 11.4856 25.6404 10.9796C26.0544 10.7016 26.4424 10.3756 26.7404 9.90165C27.1384 9.27365 27.1444 8.54165 26.7404 7.92165C26.6024 7.70965 26.4424 7.51365 26.2704 7.34765C25.6284 6.72565 24.8884 6.36365 24.1284 6.06565C22.7744 5.53565 21.3844 5.27365 19.9764 5.15565C18.0564 4.99365 16.1444 5.07565 14.2444 5.49565C13.2124 5.72165 12.2004 6.03965 11.2364 6.57765C10.7224 6.86565 10.2324 7.20565 9.83838 7.73165C9.51038 8.16965 9.31838 8.66765 9.45638 9.29365C9.54438 9.68965 9.74238 9.99565 9.97838 10.2616Z" fill="#A90730"/>
<path fill-rule="evenodd" clip-rule="evenodd" d="M38.6016 34.1718C38.5296 34.2258 38.4936 34.2558 38.4556 34.2818C38.0396 34.5478 37.6356 34.8458 37.2056 35.0698C35.6896 35.8678 34.0956 36.2378 32.4736 36.4558C31.4916 36.5878 30.5056 36.6298 29.5176 36.6218C28.5516 36.6158 27.5856 36.5558 26.6296 36.3878C25.8156 36.2418 25.0036 36.0558 24.1996 35.8338C23.2596 35.5738 22.3496 35.1818 21.4996 34.5858C21.3316 34.4678 21.1636 34.3438 20.9716 34.2038C20.9716 34.3058 20.9856 37.3958 20.9636 38.8698C20.9556 39.5538 21.1736 40.0598 21.5576 40.4838C22.0036 40.9758 22.5236 41.3058 23.0656 41.5778C24.0296 42.0618 25.0316 42.3538 26.0536 42.5618C27.0216 42.7578 27.9956 42.8678 28.9736 42.9038C30.6596 42.9658 32.3356 42.8498 33.9976 42.4578C34.9536 42.2318 35.8916 41.9278 36.7836 41.4258C37.2936 41.1398 37.7776 40.7998 38.1716 40.2798C38.4576 39.9018 38.6096 39.4618 38.6056 38.9178C38.5956 37.4158 38.6016 34.2798 38.6016 34.1718Z" fill="#A90730"/>
<path fill-rule="evenodd" clip-rule="evenodd" d="M21.4299 31.6808C21.8919 32.2608 22.4579 32.6208 23.0479 32.9248C23.9139 33.3708 24.8139 33.6488 25.7299 33.8588C26.6259 34.0648 27.5279 34.1908 28.4339 34.2488C30.1859 34.3628 31.9299 34.2708 33.6639 33.9008C34.7179 33.6768 35.7519 33.3588 36.7379 32.8128C37.2659 32.5228 37.7679 32.1748 38.1739 31.6408C38.4579 31.2668 38.6099 30.8328 38.6059 30.2948C38.5939 28.7808 38.5959 25.6348 38.5919 25.5588C38.3939 25.7008 38.2139 25.8368 38.0319 25.9608C36.6019 26.9188 35.0539 27.3588 33.4759 27.6428C32.7399 27.7748 31.9979 27.8528 31.2559 27.9148C29.8219 28.0348 28.3879 27.9788 26.9579 27.7868C25.9239 27.6468 24.8999 27.4248 23.8919 27.0868C23.0939 26.8188 22.3139 26.4868 21.5819 25.9888C21.3859 25.8548 21.1919 25.7088 20.9699 25.5508C20.9699 25.6508 20.9799 28.7748 20.9659 30.2668C20.9619 30.8388 21.1219 31.2948 21.4299 31.6808Z" fill="#A90730"/>
<path fill-rule="evenodd" clip-rule="evenodd" d="M22.7964 19.5073C22.2824 19.7933 21.7924 20.1353 21.3984 20.6613C21.0704 21.0993 20.8784 21.5973 21.0164 22.2233C21.1044 22.6193 21.3024 22.9253 21.5384 23.1913C22.0464 23.7653 22.6484 24.1213 23.2724 24.4173C24.4004 24.9533 25.5724 25.2453 26.7604 25.4353C27.7624 25.5953 28.7704 25.6773 29.5824 25.6633C31.4784 25.6653 33.1584 25.4753 34.8144 24.9833C35.6404 24.7373 36.4464 24.4153 37.2004 23.9093C37.6144 23.6313 38.0024 23.3053 38.3024 22.8313C38.6984 22.2033 38.7044 21.4713 38.3004 20.8513C38.1624 20.6393 38.0024 20.4433 37.8304 20.2773C37.1904 19.6553 36.4484 19.2933 35.6884 18.9953C34.3364 18.4653 32.9444 18.2033 31.5364 18.0853C29.6164 17.9233 27.7044 18.0053 25.8044 18.4253C24.7724 18.6513 23.7604 18.9693 22.7964 19.5073Z" fill="#A90730"/>
</svg>
