<svg width="48" height="48" viewBox="0 0 48 48" fill="none" xmlns="http://www.w3.org/2000/svg">
<path fill-rule="evenodd" clip-rule="evenodd" d="M29.698 21.8592H18.302C17.474 21.8592 16.802 21.1872 16.802 20.3592C16.802 19.5312 17.474 18.8592 18.302 18.8592H29.698C30.526 18.8592 31.198 19.5312 31.198 20.3592C31.198 21.1872 30.526 21.8592 29.698 21.8592ZM29.698 29.1392H18.302C17.474 29.1392 16.802 28.4672 16.802 27.6392C16.802 26.8112 17.474 26.1392 18.302 26.1392H29.698C30.526 26.1392 31.198 26.8112 31.198 27.6392C31.198 28.4672 30.526 29.1392 29.698 29.1392ZM41.022 14.6332C39.632 14.6332 38.5 13.5032 38.5 12.1132V11.9032C38.5 10.7792 37.588 9.86719 36.466 9.86719H11.536C10.412 9.86719 9.5 10.7792 9.5 11.9032V12.1132C9.5 13.5032 8.37 14.6332 6.98 14.6332C5.888 14.6332 5 15.5212 5 16.6132V31.3912C5 32.4812 5.888 33.3692 6.98 33.3692C8.37 33.3692 9.5 34.4992 9.5 35.8912V36.1012C9.5 37.2232 10.412 38.1372 11.536 38.1372H36.466C37.588 38.1372 38.5 37.2232 38.5 36.1012V35.8912C38.5 34.4992 39.632 33.3692 41.022 33.3692C42.114 33.3692 43 32.4812 43 31.3912V16.6132C43 15.5212 42.114 14.6332 41.022 14.6332Z" fill="#A90730"/>
<path fill-rule="evenodd" clip-rule="evenodd" d="M29.698 21.8592H18.302C17.474 21.8592 16.802 21.1872 16.802 20.3592C16.802 19.5312 17.474 18.8592 18.302 18.8592H29.698C30.526 18.8592 31.198 19.5312 31.198 20.3592C31.198 21.1872 30.526 21.8592 29.698 21.8592ZM29.698 29.1392H18.302C17.474 29.1392 16.802 28.4672 16.802 27.6392C16.802 26.8112 17.474 26.1392 18.302 26.1392H29.698C30.526 26.1392 31.198 26.8112 31.198 27.6392C31.198 28.4672 30.526 29.1392 29.698 29.1392ZM41.022 14.6332C39.632 14.6332 38.5 13.5032 38.5 12.1132V11.9032C38.5 10.7792 37.588 9.86719 36.466 9.86719H11.536C10.412 9.86719 9.5 10.7792 9.5 11.9032V12.1132C9.5 13.5032 8.37 14.6332 6.98 14.6332C5.888 14.6332 5 15.5212 5 16.6132V31.3912C5 32.4812 5.888 33.3692 6.98 33.3692C8.37 33.3692 9.5 34.4992 9.5 35.8912V36.1012C9.5 37.2232 10.412 38.1372 11.536 38.1372H36.466C37.588 38.1372 38.5 37.2232 38.5 36.1012V35.8912C38.5 34.4992 39.632 33.3692 41.022 33.3692C42.114 33.3692 43 32.4812 43 31.3912V16.6132C43 15.5212 42.114 14.6332 41.022 14.6332Z" fill="#A90730"/>
</svg>
