<svg width="48" height="48" viewBox="0 0 48 48" fill="none" xmlns="http://www.w3.org/2000/svg">
<path fill-rule="evenodd" clip-rule="evenodd" d="M34.4976 40.25C31.7176 40.25 29.3776 38.29 28.7976 35.69C28.6976 35.27 28.6576 34.85 28.6576 34.41C28.6576 31.21 31.2776 28.59 34.4976 28.59C34.9376 28.59 35.3576 28.63 35.7576 28.73C38.3576 29.31 40.3176 31.63 40.3176 34.41C40.3176 37.63 37.7176 40.25 34.4976 40.25ZM25.4776 19.91C24.8976 19.33 24.8976 18.37 25.4776 17.79C26.0776 17.21 27.0176 17.21 27.6176 17.79L31.1376 21.31C31.7176 21.91 31.7176 22.85 31.1376 23.43C30.8376 23.73 30.4576 23.87 30.0776 23.87C29.6976 23.87 29.2976 23.73 29.0176 23.43L25.4776 19.91ZM39.0376 26.87L39.4776 26.43C40.7976 25.11 41.4576 24.45 41.8976 23.65C42.9576 21.73 42.9576 19.45 41.8976 17.53C41.4776 16.75 40.8176 16.09 39.4376 14.69C39.1376 14.41 38.9776 14.25 38.8176 14.15C38.2776 13.79 38.0176 13.71 37.3376 13.79C37.2176 13.79 36.8176 13.91 35.9376 14.17C35.1776 14.41 34.3576 14.21 33.7976 13.65C33.2176 13.07 33.0176 12.27 33.2576 11.49C33.5176 10.65 33.6376 10.23 33.6576 10.09C33.7176 9.45 33.6576 9.15 33.2976 8.63C33.2176 8.51 33.0576 8.33 32.6776 7.95C31.3576 6.63 30.6976 5.97 29.9176 5.53C27.9976 4.49 25.6976 4.49 23.7776 5.53C22.9976 5.97 22.3376 6.63 20.9976 7.97L19.3776 9.59L23.5576 13.79C24.1576 14.37 24.1576 15.33 23.5576 15.91C23.2776 16.21 22.8776 16.35 22.4976 16.35C22.1176 16.35 21.7376 16.21 21.4376 15.91L17.2576 11.73L7.91762 21.05C6.61762 22.33 5.91762 23.05 5.47762 23.85C4.41762 25.77 4.41762 28.05 5.47762 29.97C5.91762 30.77 6.57762 31.43 7.91762 32.77C8.25762 33.11 8.43762 33.27 8.57762 33.35C9.09762 33.71 9.37762 33.79 10.0176 33.71C10.1376 33.71 10.5376 33.59 11.4176 33.33C12.1976 33.09 12.9976 33.29 13.6176 33.91C14.1376 34.45 14.3176 35.23 14.0576 36.13C13.7976 37.01 13.7376 37.25 13.7176 37.45C13.6576 38.11 13.7176 38.35 14.0776 38.87C14.1576 38.99 14.3176 39.17 14.6776 39.53C15.9976 40.87 16.6576 41.53 17.4576 41.97C18.4176 42.49 19.4776 42.75 20.5176 42.75C21.5776 42.75 22.6376 42.49 23.5976 41.97C24.3776 41.53 25.0576 40.87 26.3776 39.53L26.9376 38.97C28.4576 41.53 31.2776 43.25 34.4976 43.25C39.3576 43.25 43.3176 39.29 43.3176 34.41C43.3176 31.21 41.5976 28.39 39.0376 26.87Z" fill="#A90730"/>
<path fill-rule="evenodd" clip-rule="evenodd" d="M37.3347 32.9162H35.9947V31.5742C35.9947 30.7462 35.3227 30.0742 34.4947 30.0742C33.6667 30.0742 32.9947 30.7462 32.9947 31.5742V32.9182H31.6487C30.8207 32.9182 30.1487 33.5902 30.1487 34.4182C30.1487 35.2462 30.8207 35.9182 31.6487 35.9182H32.9947V37.2602C32.9947 38.0882 33.6667 38.7602 34.4947 38.7602C35.3227 38.7602 35.9947 38.0882 35.9947 37.2602V35.9162H37.3367C38.1647 35.9162 38.8347 35.2442 38.8347 34.4162C38.8347 33.5882 38.1647 32.9162 37.3347 32.9162Z" fill="#A90730"/>
<path fill-rule="evenodd" clip-rule="evenodd" d="M34.4976 40.25C31.7176 40.25 29.3776 38.29 28.7976 35.69C28.6976 35.27 28.6576 34.85 28.6576 34.41C28.6576 31.21 31.2776 28.59 34.4976 28.59C34.9376 28.59 35.3576 28.63 35.7576 28.73C38.3576 29.31 40.3176 31.63 40.3176 34.41C40.3176 37.63 37.7176 40.25 34.4976 40.25ZM25.4776 19.91C24.8976 19.33 24.8976 18.37 25.4776 17.79C26.0776 17.21 27.0176 17.21 27.6176 17.79L31.1376 21.31C31.7176 21.91 31.7176 22.85 31.1376 23.43C30.8376 23.73 30.4576 23.87 30.0776 23.87C29.6976 23.87 29.2976 23.73 29.0176 23.43L25.4776 19.91ZM39.0376 26.87L39.4776 26.43C40.7976 25.11 41.4576 24.45 41.8976 23.65C42.9576 21.73 42.9576 19.45 41.8976 17.53C41.4776 16.75 40.8176 16.09 39.4376 14.69C39.1376 14.41 38.9776 14.25 38.8176 14.15C38.2776 13.79 38.0176 13.71 37.3376 13.79C37.2176 13.79 36.8176 13.91 35.9376 14.17C35.1776 14.41 34.3576 14.21 33.7976 13.65C33.2176 13.07 33.0176 12.27 33.2576 11.49C33.5176 10.65 33.6376 10.23 33.6576 10.09C33.7176 9.45 33.6576 9.15 33.2976 8.63C33.2176 8.51 33.0576 8.33 32.6776 7.95C31.3576 6.63 30.6976 5.97 29.9176 5.53C27.9976 4.49 25.6976 4.49 23.7776 5.53C22.9976 5.97 22.3376 6.63 20.9976 7.97L19.3776 9.59L23.5576 13.79C24.1576 14.37 24.1576 15.33 23.5576 15.91C23.2776 16.21 22.8776 16.35 22.4976 16.35C22.1176 16.35 21.7376 16.21 21.4376 15.91L17.2576 11.73L7.91762 21.05C6.61762 22.33 5.91762 23.05 5.47762 23.85C4.41762 25.77 4.41762 28.05 5.47762 29.97C5.91762 30.77 6.57762 31.43 7.91762 32.77C8.25762 33.11 8.43762 33.27 8.57762 33.35C9.09762 33.71 9.37762 33.79 10.0176 33.71C10.1376 33.71 10.5376 33.59 11.4176 33.33C12.1976 33.09 12.9976 33.29 13.6176 33.91C14.1376 34.45 14.3176 35.23 14.0576 36.13C13.7976 37.01 13.7376 37.25 13.7176 37.45C13.6576 38.11 13.7176 38.35 14.0776 38.87C14.1576 38.99 14.3176 39.17 14.6776 39.53C15.9976 40.87 16.6576 41.53 17.4576 41.97C18.4176 42.49 19.4776 42.75 20.5176 42.75C21.5776 42.75 22.6376 42.49 23.5976 41.97C24.3776 41.53 25.0576 40.87 26.3776 39.53L26.9376 38.97C28.4576 41.53 31.2776 43.25 34.4976 43.25C39.3576 43.25 43.3176 39.29 43.3176 34.41C43.3176 31.21 41.5976 28.39 39.0376 26.87Z" fill="#A90730"/>
<path fill-rule="evenodd" clip-rule="evenodd" d="M37.3347 32.9162H35.9947V31.5742C35.9947 30.7462 35.3227 30.0742 34.4947 30.0742C33.6667 30.0742 32.9947 30.7462 32.9947 31.5742V32.9182H31.6487C30.8207 32.9182 30.1487 33.5902 30.1487 34.4182C30.1487 35.2462 30.8207 35.9182 31.6487 35.9182H32.9947V37.2602C32.9947 38.0882 33.6667 38.7602 34.4947 38.7602C35.3227 38.7602 35.9947 38.0882 35.9947 37.2602V35.9162H37.3367C38.1647 35.9162 38.8347 35.2442 38.8347 34.4162C38.8347 33.5882 38.1647 32.9162 37.3347 32.9162Z" fill="#A90730"/>
</svg>
