<svg width="48" height="48" viewBox="0 0 48 48" fill="none" xmlns="http://www.w3.org/2000/svg">
<path d="M41.8766 28.399C41.8596 28.466 41.8408 28.5328 41.8202 28.5994C41.1142 30.8734 39.9262 33.2754 38.2902 35.7414C37.6082 36.8954 36.5222 37.7214 35.2242 38.0674C35.0778 38.107 34.9302 38.14 34.7822 38.1662C31.9792 42.9464 28.9414 43.4998 25.7414 43.4998C25.2634 43.4998 24.7814 43.4878 24.2954 43.4738L24.1378 43.47C23.6798 43.459 23.2094 43.4478 22.7234 43.4478C21.8954 43.4478 21.2234 42.7758 21.2234 41.9478C21.2234 41.1198 21.8954 40.4478 22.7234 40.4478C23.2914 40.4478 23.8414 40.4618 24.3714 40.4758C27.5474 40.5604 29.4976 40.6092 31.5536 37.6628C31.4892 37.6292 31.4254 37.594 31.3622 37.5574C28.9382 36.1554 28.1042 33.0414 29.5022 30.6134L32.5162 25.3914C33.9142 22.9654 37.0302 22.1274 39.4602 23.5254L39.6276 23.6226C39.6326 23.4582 39.6352 23.2932 39.6352 23.128C39.6352 14.51 32.6192 7.5 23.9932 7.5C15.3752 7.5 8.36523 14.51 8.36523 23.128C8.36523 23.2952 8.36781 23.462 8.37299 23.6282L8.54227 23.5308C10.9763 22.1308 14.0883 22.9688 15.4903 25.3948L18.5023 30.6148C19.9043 33.0428 19.0703 36.1588 16.6443 37.5608C15.8603 38.0148 14.9883 38.2448 14.1063 38.2448C13.6643 38.2448 13.2203 38.1868 12.7823 38.0708C11.4863 37.7228 10.4003 36.8968 9.71827 35.7428C8.29647 33.6014 7.21289 31.5112 6.49229 29.5136C5.74447 27.4774 5.36523 25.3304 5.36523 23.128C5.36523 12.856 13.7212 4.5 23.9932 4.5C34.2732 4.5 42.6352 12.856 42.6352 23.128C42.6352 24.9296 42.3808 26.6944 41.8766 28.399Z" fill="#A90730"/>
</svg>
