<svg width="70" height="70" viewBox="0 0 70 70" fill="none" xmlns="http://www.w3.org/2000/svg">
<path d="M30.4745 22.2975C24.8137 21.6837 18.9347 23.5507 14.6004 27.8985C8.65219 33.8691 7.36401 42.7118 10.7002 49.9431C11.1274 51.0138 11.46 51.8734 11.46 52.7075C11.46 55.0391 9.21837 57.926 10.7128 59.4258C12.2072 60.9253 15.0845 58.6759 17.3956 58.6634C18.2249 58.6634 19.0984 59.0096 20.1635 59.4404C27.3704 62.7858 36.1854 61.4955 42.1336 55.5248C46.4888 51.155 48.3511 45.2254 47.7138 39.5219" stroke="#A90730" stroke-width="2" stroke-linecap="round" stroke-linejoin="round"/>
<path d="M52.2661 37.977C46.6119 40.6009 39.6976 39.5888 35.0307 34.9058C29.0724 28.9275 29.0608 19.2237 35.0307 13.2338C40.9888 7.25541 50.6698 7.25541 56.6298 13.2338C61.2953 17.9167 62.3056 24.8542 59.6888 30.5276C59.3536 31.3658 59.0929 32.0416 59.0929 32.6961C59.0929 34.5249 60.851 36.7894 59.6788 37.9654C58.5066 39.1417 56.2483 37.3774 54.4373 37.3675C53.7851 37.3675 53.1018 37.639 52.2661 37.977Z" stroke="#A90730" stroke-width="2" stroke-linecap="round" stroke-linejoin="round"/>
<path d="M19.4644 47.7786H33.9005M19.3501 39.3984H26.6246" stroke="#A90730" stroke-width="2" stroke-linecap="round" stroke-linejoin="round"/>
<path d="M51.5391 27.8777H40.9521M51.6228 20.2617H45.2691" stroke="#A90730" stroke-width="2" stroke-linecap="round" stroke-linejoin="round"/>
</svg>
