<svg width="27" height="27" viewBox="0 0 27 27" fill="none" xmlns="http://www.w3.org/2000/svg">
<path fill-rule="evenodd" clip-rule="evenodd" d="M22.848 19.0074C22.8345 17.9991 22.0785 17.2804 21.0317 16.2856C20.7752 16.0416 20.4958 15.7757 20.203 15.4808C18.853 14.1308 17.7346 14.568 16.747 14.9553C15.6192 15.3956 14.5548 15.8152 12.6129 13.8722H12.6118C10.6699 11.9334 11.0863 10.868 11.5277 9.74021C11.914 8.75263 12.3522 7.63317 11.0033 6.28109C10.7073 5.98513 10.4404 5.70371 10.1944 5.44513C9.20158 4.40148 8.48401 3.64548 7.47774 3.63302C6.65735 3.62056 5.69158 4.17613 4.32497 5.54275C4.31147 5.55729 4.24085 5.6279 4.22839 5.64348C3.92724 5.93944 3.12451 6.72659 3.11724 8.25729C3.10581 10.653 5.03839 13.8047 8.86201 17.6283C12.6721 21.4384 15.8155 23.37 18.2071 23.3689H18.2393C19.771 23.3575 20.554 22.5527 20.8489 22.2495L20.9445 22.156C22.3069 20.7925 22.8583 19.8807 22.848 19.0074Z" fill="white"/>
</svg>
