<svg width="79" height="79" viewBox="0 0 79 79" fill="none" xmlns="http://www.w3.org/2000/svg">
<rect width="79" height="79" rx="11" fill="#FBEAEF"/>
<path fill-rule="evenodd" clip-rule="evenodd" d="M30.8948 38.8806C29.8548 38.7406 28.8348 38.5206 27.8348 38.1806C27.0348 37.9206 26.2548 37.5806 25.5148 37.0806C25.3148 36.9606 25.1348 36.8006 24.9148 36.6406V41.3606C24.8948 41.9406 25.0548 42.4006 25.3748 42.7806C25.8348 43.3606 26.3948 43.7206 26.9948 44.0206C27.8548 44.4606 28.7548 44.7406 29.6748 44.9606C30.5748 45.1606 31.4748 45.2806 32.3748 45.3406C32.9348 45.3806 33.4948 45.4006 34.0548 45.3806C34.0748 43.9806 34.0748 42.0406 34.0748 41.5406L34.0548 39.0606C33.0148 39.1006 31.9548 39.0206 30.8948 38.8806Z" fill="#A90730"/>
<path fill-rule="evenodd" clip-rule="evenodd" d="M30.5745 47.4808C29.7545 47.3408 28.9345 47.1608 28.1345 46.9408C27.1945 46.6808 26.2945 46.2808 25.4345 45.6808C25.2745 45.5608 25.0945 45.4408 24.9145 45.3008C24.9145 45.4008 24.9145 48.5008 24.8945 49.9608C24.8945 50.6608 25.1145 51.1608 25.4945 51.5808C25.9345 52.0808 26.4545 52.4008 26.9945 52.6808C27.9745 53.1608 28.9745 53.4608 29.9945 53.6608C30.9545 53.8608 31.9345 53.9608 32.9145 54.0008C33.2945 54.0208 33.6745 54.0208 34.0545 54.0208C34.0745 52.7208 34.0745 50.1608 34.0745 49.5408V47.7008C33.8745 47.7208 33.6545 47.7208 33.4545 47.7208C32.4945 47.7208 31.5345 47.6608 30.5745 47.4808Z" fill="#A90730"/>
<path fill-rule="evenodd" clip-rule="evenodd" d="M40.4748 31.6611C41.1548 31.5211 41.8348 31.4011 42.5348 31.3211V28.1211C42.3348 28.2811 42.1548 28.4011 41.9748 28.5411C40.5348 29.4811 38.9948 29.9211 37.4148 30.2211C36.6748 30.3411 35.9348 30.4211 35.1948 30.4811C33.7548 30.6011 32.3348 30.5611 30.8948 30.3611C29.8548 30.2211 28.8348 30.0011 27.8348 29.6611C27.0348 29.4011 26.2548 29.0611 25.5148 28.5611C25.3148 28.4211 25.1348 28.2811 24.9148 28.1211V32.8411C24.8948 33.4011 25.0548 33.8611 25.3748 34.2611C25.8348 34.8411 26.3948 35.2011 26.9948 35.5011C27.8548 35.9411 28.7548 36.2211 29.6748 36.4411C30.5748 36.6411 31.4748 36.7611 32.3748 36.8211C32.9548 36.8611 33.5348 36.8811 34.0948 36.8611C34.1148 36.2011 34.3148 35.4211 34.8948 34.6611C35.5548 33.8011 36.3148 33.3011 36.9148 32.9611C37.9348 32.4011 39.0748 31.9811 40.4748 31.6611Z" fill="#A90730"/>
<path fill-rule="evenodd" clip-rule="evenodd" d="M25.4784 25.7616C25.9864 26.3356 26.5884 26.6916 27.2124 26.9876C28.3404 27.5236 29.5124 27.8156 30.6984 28.0056C31.7024 28.1676 32.7104 28.2476 33.5224 28.2336C35.4184 28.2356 37.0984 28.0456 38.7544 27.5536C39.5804 27.3076 40.3844 26.9856 41.1404 26.4796C41.5544 26.2016 41.9424 25.8756 42.2404 25.4016C42.6384 24.7736 42.6444 24.0416 42.2404 23.4216C42.1024 23.2096 41.9424 23.0136 41.7704 22.8476C41.1284 22.2256 40.3884 21.8636 39.6284 21.5656C38.2744 21.0356 36.8844 20.7736 35.4764 20.6556C33.5564 20.4936 31.6444 20.5756 29.7444 20.9956C28.7124 21.2216 27.7004 21.5396 26.7364 22.0776C26.2224 22.3656 25.7324 22.7056 25.3384 23.2316C25.0104 23.6696 24.8184 24.1676 24.9564 24.7936C25.0444 25.1896 25.2424 25.4956 25.4784 25.7616Z" fill="#A90730"/>
<path fill-rule="evenodd" clip-rule="evenodd" d="M54.1016 49.6718C54.0296 49.7258 53.9936 49.7558 53.9556 49.7818C53.5396 50.0478 53.1356 50.3458 52.7056 50.5698C51.1896 51.3678 49.5956 51.7378 47.9736 51.9558C46.9916 52.0878 46.0056 52.1298 45.0176 52.1218C44.0516 52.1158 43.0856 52.0558 42.1296 51.8878C41.3156 51.7418 40.5036 51.5558 39.6996 51.3338C38.7596 51.0738 37.8496 50.6818 36.9996 50.0858C36.8316 49.9678 36.6636 49.8438 36.4716 49.7038C36.4716 49.8058 36.4856 52.8958 36.4636 54.3698C36.4556 55.0538 36.6736 55.5598 37.0576 55.9838C37.5036 56.4758 38.0236 56.8058 38.5656 57.0778C39.5296 57.5618 40.5316 57.8538 41.5536 58.0618C42.5216 58.2578 43.4956 58.3678 44.4736 58.4038C46.1596 58.4658 47.8356 58.3498 49.4976 57.9578C50.4536 57.7318 51.3916 57.4278 52.2836 56.9258C52.7936 56.6398 53.2776 56.2998 53.6716 55.7798C53.9576 55.4018 54.1096 54.9618 54.1056 54.4178C54.0956 52.9158 54.1016 49.7798 54.1016 49.6718Z" fill="#A90730"/>
<path fill-rule="evenodd" clip-rule="evenodd" d="M36.9298 47.1808C37.3918 47.7608 37.9578 48.1208 38.5478 48.4248C39.4138 48.8708 40.3138 49.1488 41.2298 49.3588C42.1258 49.5648 43.0278 49.6908 43.9338 49.7488C45.6858 49.8628 47.4298 49.7708 49.1638 49.4008C50.2178 49.1768 51.2518 48.8588 52.2378 48.3128C52.7658 48.0228 53.2678 47.6748 53.6738 47.1408C53.9578 46.7668 54.1098 46.3328 54.1058 45.7948C54.0938 44.2808 54.0958 41.1348 54.0918 41.0588C53.8938 41.2008 53.7138 41.3368 53.5318 41.4608C52.1018 42.4188 50.5538 42.8588 48.9758 43.1428C48.2398 43.2748 47.4978 43.3528 46.7558 43.4148C45.3218 43.5348 43.8878 43.4788 42.4578 43.2868C41.4238 43.1468 40.3998 42.9248 39.3918 42.5868C38.5938 42.3188 37.8138 41.9868 37.0818 41.4888C36.8858 41.3548 36.6918 41.2088 36.4698 41.0508C36.4698 41.1508 36.4798 44.2748 36.4658 45.7668C36.4618 46.3388 36.6218 46.7948 36.9298 47.1808Z" fill="#A90730"/>
<path fill-rule="evenodd" clip-rule="evenodd" d="M38.2966 35.0073C37.7826 35.2933 37.2926 35.6353 36.8986 36.1613C36.5706 36.5993 36.3786 37.0973 36.5166 37.7233C36.6046 38.1193 36.8026 38.4253 37.0386 38.6913C37.5466 39.2653 38.1486 39.6213 38.7726 39.9173C39.9006 40.4533 41.0726 40.7453 42.2606 40.9353C43.2626 41.0953 44.2706 41.1773 45.0826 41.1633C46.9786 41.1653 48.6586 40.9753 50.3146 40.4833C51.1406 40.2373 51.9466 39.9153 52.7006 39.4093C53.1146 39.1313 53.5026 38.8053 53.8026 38.3313C54.1986 37.7033 54.2046 36.9713 53.8006 36.3513C53.6626 36.1393 53.5026 35.9433 53.3306 35.7773C52.6906 35.1553 51.9486 34.7933 51.1886 34.4953C49.8366 33.9653 48.4446 33.7033 47.0366 33.5853C45.1166 33.4233 43.2046 33.5053 41.3046 33.9253C40.2726 34.1513 39.2606 34.4693 38.2966 35.0073Z" fill="#A90730"/>
</svg>
