<svg width="56" height="56" viewBox="0 0 56 56" fill="none" xmlns="http://www.w3.org/2000/svg">
<rect width="56" height="56" rx="12" fill="#27272A"/>
<path fill-rule="evenodd" clip-rule="evenodd" d="M19.5614 22.1942L26.1707 27.5706C27.3014 28.4391 28.7751 28.4459 29.8225 27.5762L36.433 22.183C36.7064 22.7027 36.883 23.2945 36.9505 23.938L30.8958 28.8779C30.0756 29.563 29.0676 29.9039 28.0439 29.9039C27.0291 29.9039 25.9998 29.5686 25.1223 28.8936L19.0472 23.9515C19.1147 23.308 19.2891 22.7151 19.5614 22.1942ZM38.6875 24.5095C38.6875 24.1607 38.6515 23.8277 38.5975 23.5015C38.5626 23.2573 38.5086 23.0245 38.449 22.7916C38.4434 22.7702 38.4411 22.7477 38.4355 22.7263L38.4321 22.7297C38.2758 22.1436 38.0631 21.5878 37.7672 21.0928L37.7751 21.0872C37.7639 21.0681 37.7493 21.0501 37.7369 21.031C37.7301 21.0197 37.7211 21.0096 37.7144 20.9972C37.5276 20.6957 37.3127 20.419 37.0799 20.1602C37.0574 20.1355 37.0371 20.1096 37.0146 20.086C36.7705 19.825 36.5061 19.5887 36.2192 19.3806C36.199 19.366 36.1765 19.3525 36.1562 19.3378C35.8727 19.1376 35.5735 18.9632 35.2551 18.8192C35.2394 18.8125 35.2248 18.8035 35.209 18.7956C34.8951 18.6583 34.5644 18.5537 34.2224 18.4761C34.1549 18.4603 34.0862 18.448 34.0165 18.4345C33.6745 18.3703 33.3257 18.3265 32.9612 18.3253C32.9567 18.3253 32.9534 18.3242 32.95 18.3242H23.05C23.0466 18.3242 23.0433 18.3253 23.0399 18.3253C22.6563 18.3265 22.2895 18.3726 21.934 18.4401C21.8957 18.448 21.8575 18.4536 21.8193 18.4626C20.2623 18.7922 18.9888 19.7327 18.199 21.0861L18.2249 21.1075C17.9301 21.6025 17.7186 22.1582 17.5634 22.7443L17.5521 22.7353C17.5375 22.795 17.5296 22.8591 17.515 22.9187C17.4734 23.101 17.4329 23.281 17.4048 23.4688C17.3508 23.8052 17.3125 24.1483 17.3125 24.5095V31.4867L17.3136 31.4935C17.3136 31.9457 17.3564 32.3822 17.4351 32.8019C17.443 32.8435 17.4599 32.8817 17.4689 32.9234C17.5454 33.2969 17.6444 33.658 17.7771 33.9977C17.8536 34.1969 17.9594 34.3746 18.0527 34.5614C18.1326 34.7166 18.199 34.8809 18.2901 35.0271C18.4836 35.3432 18.7064 35.629 18.9494 35.8956C18.9516 35.8979 18.9527 35.9012 18.9561 35.9035C19.0112 35.9654 19.054 36.0407 19.1125 36.0992C20.125 37.1117 21.475 37.6742 23.05 37.6742H32.95C33.3212 37.6742 33.6846 37.6371 34.039 37.5662C35.0808 37.375 35.9864 36.898 36.7266 36.2219C36.7784 36.178 36.8369 36.1454 36.8875 36.0992C36.9066 36.0801 36.9201 36.0554 36.9381 36.0362C38.0271 34.9315 38.6864 33.3486 38.6875 31.4912V24.5095Z" fill="white"/>
</svg>
