<svg width="88" height="156" viewBox="0 0 88 156" fill="none" xmlns="http://www.w3.org/2000/svg">
<rect x="0.5" y="0.5" width="87" height="155" rx="4.5" stroke="#8A38F5" stroke-dasharray="10 5"/>
<path d="M47.102 49.2842L44.049 46.2312L41.0225 49.2577C40.5352 49.745 39.7417 49.7416 39.2501 49.25C38.7586 48.7584 38.7551 47.9649 39.2424 47.4776L42.2689 44.4511L39.2159 41.3981C38.8045 40.8925 38.8391 40.161 39.2961 39.7041C39.753 39.2471 40.4845 39.2125 40.9901 39.6239L44.0335 42.6674L47.0505 39.6503C47.5526 39.2433 48.2844 39.2842 48.7453 39.7452C49.2063 40.2062 49.2473 40.938 48.8402 41.44L45.8232 44.457L48.8762 47.51C49.2876 48.0156 49.253 48.7471 48.7961 49.2041C48.3391 49.661 47.6076 49.6956 47.102 49.2842Z" fill="#A90730"/>
<path d="M42.8104 118.076L42.8104 113.759L38.5303 113.759C37.8412 113.759 37.2825 113.195 37.2825 112.5C37.2825 111.805 37.8412 111.241 38.5303 111.241L42.8104 111.241L42.8104 106.924C42.877 106.275 43.4187 105.782 44.065 105.782C44.7112 105.782 45.2529 106.275 45.3195 106.924L45.3195 111.228L49.5862 111.228C50.229 111.295 50.7175 111.841 50.7175 112.493C50.7175 113.145 50.229 113.692 49.5862 113.759L45.3195 113.759L45.3195 118.076C45.2529 118.725 44.7112 119.217 44.065 119.217C43.4187 119.217 42.877 118.725 42.8104 118.076Z" fill="#A90730"/>
</svg>
