<svg width="48" height="48" viewBox="0 0 48 48" fill="none" xmlns="http://www.w3.org/2000/svg">
<path d="M18.2803 17.4697C17.9874 17.1768 17.5126 17.1768 17.2197 17.4697C16.9268 17.7626 16.9268 18.2374 17.2197 18.5303L22.6893 24L17.2197 29.4697C16.9268 29.7626 16.9268 30.2374 17.2197 30.5303C17.5126 30.8232 17.9874 30.8232 18.2803 30.5303L23.75 25.0607L29.2197 30.5303C29.5126 30.8232 29.9874 30.8232 30.2803 30.5303C30.5732 30.2374 30.5732 29.7626 30.2803 29.4697L24.8107 24L30.2803 18.5303C30.5732 18.2374 30.5732 17.7626 30.2803 17.4697C29.9874 17.1768 29.5126 17.1768 29.2197 17.4697L23.75 22.9393L18.2803 17.4697Z" fill="#B8173B"/>
</svg>
