<svg width="48" height="48" viewBox="0 0 48 48" fill="none" xmlns="http://www.w3.org/2000/svg">
<path fill-rule="evenodd" clip-rule="evenodd" d="M7.4804 7.79474C9.44936 5.68234 12.2534 4.5 15.5643 4.5H32.4338C35.7524 4.5 38.5576 5.68168 40.5258 7.7953C42.4826 9.89682 43.5 12.7978 43.5 16.0528V31.9472C43.5 35.2022 42.4826 38.1032 40.5254 40.2048C38.557 42.3184 35.7512 43.5 32.4318 43.5H15.5643C12.2456 43.5 9.44076 42.3182 7.47314 40.2046C5.51684 38.103 4.5 35.202 4.5 31.9472V16.0528C4.5 12.7961 5.52234 9.89542 7.4804 7.79474ZM9.6749 9.84024C8.32048 11.2933 7.5 13.419 7.5 16.0528V31.9472C7.5 34.5828 8.31722 36.7082 9.66902 38.1604C11.0095 39.6006 12.9868 40.5 15.5643 40.5H32.4318C35.0104 40.5 36.9888 39.6004 38.33 38.1602C39.6824 36.708 40.5 34.5826 40.5 31.9472V16.0528C40.5 13.4174 39.6824 11.2919 38.3302 9.83968C36.9892 8.3995 35.0112 7.5 32.4338 7.5H15.5643C12.9966 7.5 11.0184 8.39886 9.6749 9.84024Z" fill="#A90730"/>
<path fill-rule="evenodd" clip-rule="evenodd" d="M23.6929 19.1562C20.6527 19.1562 18.1875 21.6216 18.1875 24.6616C18.1875 27.7018 20.6527 30.167 23.6929 30.167C26.7331 30.167 29.1983 27.7018 29.1983 24.6616C29.1983 21.6216 26.7331 19.1562 23.6929 19.1562ZM15.1875 24.6616C15.1875 19.9647 18.9959 16.1562 23.6929 16.1562C28.3899 16.1562 32.1983 19.9647 32.1983 24.6616C32.1983 29.3586 28.3899 33.167 23.6929 33.167C18.9959 33.167 15.1875 29.3586 15.1875 24.6616Z" fill="#A90730"/>
<path fill-rule="evenodd" clip-rule="evenodd" d="M31.6562 14.7575C31.6562 13.6153 32.5836 12.6875 33.7262 12.6875C34.8754 12.6875 35.7943 13.622 35.7943 14.7575C35.7943 15.8999 34.8686 16.8255 33.7262 16.8255C32.5904 16.8255 31.6562 15.9066 31.6562 14.7575Z" fill="#A90730"/>
</svg>
