<svg width="48" height="48" viewBox="0 0 48 48" fill="none" xmlns="http://www.w3.org/2000/svg">
<path fill-rule="evenodd" clip-rule="evenodd" d="M7.4804 7.79474C9.44936 5.68234 12.2534 4.5 15.5643 4.5H32.4338C35.7524 4.5 38.5576 5.68168 40.5258 7.7953C42.4826 9.89682 43.5 12.7978 43.5 16.0528V31.9472C43.5 35.2022 42.4826 38.1032 40.5254 40.2048C38.557 42.3184 35.7512 43.5 32.4318 43.5H15.5643C12.2456 43.5 9.44076 42.3182 7.47314 40.2046C5.51684 38.103 4.5 35.202 4.5 31.9472V16.0528C4.5 12.7961 5.52234 9.89542 7.4804 7.79474ZM9.6749 9.84024C8.32048 11.2933 7.5 13.419 7.5 16.0528V31.9472C7.5 34.5828 8.31722 36.7082 9.66902 38.1604C11.0095 39.6006 12.9868 40.5 15.5643 40.5H32.4318C35.0104 40.5 36.9888 39.6004 38.33 38.1602C39.6824 36.708 40.5 34.5826 40.5 31.9472V16.0528C40.5 13.4174 39.6824 11.2919 38.3302 9.83968C36.9892 8.3995 35.0112 7.5 32.4338 7.5H15.5643C12.9966 7.5 11.0184 8.39886 9.6749 9.84024Z" fill="#A90730"/>
<path fill-rule="evenodd" clip-rule="evenodd" d="M15.7656 20.4844C16.5941 20.4844 17.2656 21.156 17.2656 21.9844V31.601C17.2656 32.4294 16.5941 33.101 15.7656 33.101C14.9372 33.101 14.2656 32.4294 14.2656 31.601V21.9844C14.2656 21.156 14.9372 20.4844 15.7656 20.4844Z" fill="#A90730"/>
<path fill-rule="evenodd" clip-rule="evenodd" d="M27.3851 21.2968C25.4175 21.2968 23.8203 22.894 23.8203 24.8616V31.602C23.8203 32.4304 23.1487 33.102 22.3203 33.102C21.4919 33.102 20.8203 32.4304 20.8203 31.602V24.8616C20.8203 21.2372 23.7607 18.2969 27.3851 18.2969C31.0123 18.2969 33.9499 21.2376 33.9499 24.8616V31.602C33.9499 32.4304 33.2785 33.102 32.4499 33.102C31.6215 33.102 30.9499 32.4304 30.9499 31.602V24.8616C30.9499 22.8936 29.3545 21.2968 27.3851 21.2968Z" fill="#A90730"/>
<path fill-rule="evenodd" clip-rule="evenodd" d="M14.0469 16.6161C14.0469 15.668 14.8154 14.8984 15.7645 14.8984C16.7125 14.8984 17.4823 15.6668 17.4823 16.6161C17.4823 17.5655 16.7125 18.3339 15.7645 18.3339C14.8154 18.3339 14.0469 17.5643 14.0469 16.6161Z" fill="#A90730"/>
</svg>
