<svg width="27" height="27" viewBox="0 0 27 27" fill="none" xmlns="http://www.w3.org/2000/svg">
<path fill-rule="evenodd" clip-rule="evenodd" d="M5.06138 7.69422L11.6707 13.0706C12.8014 13.9391 14.2751 13.9459 15.3225 13.0762L21.933 7.68297C22.2064 8.20272 22.383 8.79447 22.4505 9.43797L16.3958 14.3779C15.5756 15.063 14.5676 15.4039 13.5439 15.4039C12.5291 15.4039 11.4998 15.0686 10.6223 14.3936L4.54725 9.45147C4.61475 8.80797 4.78913 8.21509 5.06138 7.69422ZM24.1875 10.0095C24.1875 9.66072 24.1515 9.32772 24.0975 9.00147C24.0626 8.75734 24.0086 8.52447 23.949 8.29159C23.9434 8.27022 23.9411 8.24772 23.9355 8.22634L23.9321 8.22972C23.7758 7.64359 23.5631 7.08784 23.2673 6.59284L23.2751 6.58722C23.2639 6.56809 23.2493 6.55009 23.2369 6.53097C23.2301 6.51972 23.2211 6.50959 23.2144 6.49722C23.0276 6.19572 22.8127 5.91897 22.5799 5.66022C22.5574 5.63547 22.5371 5.60959 22.5146 5.58597C22.2705 5.32497 22.0061 5.08872 21.7192 4.88059C21.699 4.86597 21.6765 4.85247 21.6562 4.83784C21.3727 4.63759 21.0735 4.46322 20.7551 4.31922C20.7394 4.31247 20.7248 4.30347 20.709 4.29559C20.3951 4.15834 20.0644 4.05372 19.7224 3.97609C19.6549 3.96034 19.5863 3.94797 19.5165 3.93447C19.1745 3.87034 18.8258 3.82647 18.4613 3.82534C18.4567 3.82534 18.4534 3.82422 18.45 3.82422H8.55C8.54662 3.82422 8.54325 3.82534 8.53988 3.82534C8.15625 3.82647 7.7895 3.87259 7.434 3.94009C7.39575 3.94797 7.3575 3.95359 7.31925 3.96259C5.76225 4.29222 4.48875 5.23272 3.699 6.58609L3.72488 6.60747C3.43013 7.10247 3.21863 7.65822 3.06338 8.24434L3.05213 8.23534C3.0375 8.29497 3.02963 8.35909 3.015 8.41872C2.97338 8.60097 2.93288 8.78097 2.90475 8.96884C2.85075 9.30522 2.8125 9.64834 2.8125 10.0095V16.9867L2.81362 16.9935C2.81362 17.4457 2.85637 17.8822 2.93512 18.3019C2.943 18.3435 2.95987 18.3817 2.96887 18.4234C3.04537 18.7969 3.14438 19.158 3.27713 19.4977C3.35363 19.6969 3.45938 19.8746 3.55275 20.0614C3.63262 20.2166 3.699 20.3809 3.79012 20.5271C3.98362 20.8432 4.20637 21.129 4.44937 21.3956C4.45162 21.3979 4.45275 21.4012 4.45613 21.4035C4.51125 21.4654 4.554 21.5407 4.6125 21.5992C5.625 22.6117 6.975 23.1742 8.55 23.1742H18.45C18.8212 23.1742 19.1846 23.1371 19.539 23.0662C20.5807 22.875 21.4864 22.398 22.2266 21.7219C22.2784 21.678 22.3369 21.6454 22.3875 21.5992C22.4066 21.5801 22.4201 21.5554 22.4381 21.5362C23.5271 20.4315 24.1864 18.8486 24.1875 16.9912V10.0095Z" fill="white"/>
</svg>
