<svg width="79" height="79" viewBox="0 0 79 79" fill="none" xmlns="http://www.w3.org/2000/svg">
<rect width="79" height="79" rx="11" fill="#FBEAEF"/>
<path d="M57.3766 43.899C57.3596 43.966 57.3408 44.0328 57.3202 44.0994C56.6142 46.3734 55.4262 48.7754 53.7902 51.2414C53.1082 52.3954 52.0222 53.2214 50.7242 53.5674C50.5778 53.607 50.4302 53.64 50.2822 53.6662C47.4792 58.4464 44.4414 58.9998 41.2414 58.9998C40.7634 58.9998 40.2814 58.9878 39.7954 58.9738L39.6378 58.97C39.1798 58.959 38.7094 58.9478 38.2234 58.9478C37.3954 58.9478 36.7234 58.2758 36.7234 57.4478C36.7234 56.6198 37.3954 55.9478 38.2234 55.9478C38.7914 55.9478 39.3414 55.9618 39.8714 55.9758C43.0474 56.0604 44.9976 56.1092 47.0536 53.1628C46.9892 53.1292 46.9254 53.094 46.8622 53.0574C44.4382 51.6554 43.6042 48.5414 45.0022 46.1134L48.0162 40.8914C49.4142 38.4654 52.5302 37.6274 54.9602 39.0254L55.1276 39.1226C55.1326 38.9582 55.1352 38.7932 55.1352 38.628C55.1352 30.01 48.1192 23 39.4932 23C30.8752 23 23.8652 30.01 23.8652 38.628C23.8652 38.7952 23.8678 38.962 23.873 39.1282L24.0423 39.0308C26.4763 37.6308 29.5883 38.4688 30.9903 40.8948L34.0023 46.1148C35.4043 48.5428 34.5703 51.6588 32.1443 53.0608C31.3603 53.5148 30.4883 53.7448 29.6063 53.7448C29.1643 53.7448 28.7203 53.6868 28.2823 53.5708C26.9863 53.2228 25.9003 52.3968 25.2183 51.2428C23.7965 49.1014 22.7129 47.0112 21.9923 45.0136C21.2445 42.9774 20.8652 40.8304 20.8652 38.628C20.8652 28.356 29.2212 20 39.4932 20C49.7732 20 58.1352 28.356 58.1352 38.628C58.1352 40.4296 57.8808 42.1944 57.3766 43.899Z" fill="#A90730"/>
</svg>
