<svg width="56" height="56" viewBox="0 0 56 56" fill="none" xmlns="http://www.w3.org/2000/svg">
<rect width="56" height="56" rx="12" fill="#27272A"/>
<path fill-rule="evenodd" clip-rule="evenodd" d="M37.348 33.5074C37.3345 32.4991 36.5785 31.7804 35.5317 30.7856C35.2752 30.5416 34.9958 30.2757 34.703 29.9808C33.353 28.6308 32.2346 29.068 31.247 29.4553C30.1192 29.8956 29.0548 30.3152 27.1129 28.3722H27.1118C25.1699 26.4334 25.5863 25.368 26.0277 24.2402C26.414 23.2526 26.8522 22.1332 25.5033 20.7811C25.2073 20.4851 24.9404 20.2037 24.6944 19.9451C23.7016 18.9015 22.984 18.1455 21.9777 18.133C21.1574 18.1206 20.1916 18.6761 18.825 20.0427C18.8115 20.0573 18.7409 20.1279 18.7284 20.1435C18.4272 20.4394 17.6245 21.2266 17.6172 22.7573C17.6058 25.153 19.5384 28.3047 23.362 32.1283C27.1721 35.9384 30.3155 37.87 32.7071 37.8689H32.7393C34.271 37.8575 35.054 37.0527 35.3489 36.7495L35.4445 36.656C36.8069 35.2925 37.3583 34.3807 37.348 33.5074Z" fill="white"/>
</svg>
