<svg width="24" height="25" viewBox="0 0 24 25" fill="none" xmlns="http://www.w3.org/2000/svg">
<path fill-rule="evenodd" clip-rule="evenodd" d="M13.9773 5.07161C13.5503 5.08561 13.1093 5.10061 12.6783 5.17261C11.9243 5.29761 11.3493 5.7826 10.9193 6.6596C10.2583 8.0226 9.60631 9.3856 8.97527 10.7626C8.90127 10.9216 8.89727 10.9246 8.71727 10.9216C7.73127 10.9066 6.61327 10.8906 5.52327 10.9486C4.06727 11.0256 2.49927 11.8166 2.49927 13.3716C2.49927 14.9276 4.06727 15.7186 5.52227 15.7966C6.61327 15.8546 7.73127 15.8376 8.71827 15.8226C8.89927 15.8206 8.90127 15.8216 8.97527 15.9816C9.60631 17.3586 10.2583 18.7216 10.9203 20.0866C11.3493 20.9616 11.9243 21.4476 12.6773 21.5716C13.1093 21.6436 13.5503 21.6576 13.9773 21.6726C14.1643 21.6786 14.3553 21.6846 14.5503 21.6966C14.6863 21.7036 14.8203 21.6556 14.9203 21.5626C15.0203 21.4686 15.0783 21.3386 15.0793 21.2016L15.1253 15.8386L17.4413 15.6246L18.8133 17.2936C18.9083 17.4086 19.0503 17.4756 19.1993 17.4756L20.9993 17.4756C21.1533 17.4756 21.2993 17.4046 21.3943 17.2836C21.4633 17.1946 21.4993 17.0866 21.4993 16.9756C21.4993 16.9356 21.4953 16.8946 21.4843 16.8546L20.6143 13.3716L21.4843 9.8896C21.5243 9.7396 21.4893 9.5826 21.3943 9.4616C21.2993 9.3396 21.1533 9.2686 20.9993 9.2686L19.1993 9.2686C19.0493 9.2686 18.9063 9.3366 18.8113 9.4526L17.4413 11.1356L15.1263 10.9096C15.1173 9.8376 15.0953 7.1066 15.0793 5.5416C15.0783 5.4046 15.0203 5.27461 14.9203 5.18161C14.8203 5.08861 14.6863 5.0396 14.5503 5.0476C14.3553 5.0586 14.1643 5.06561 13.9773 5.07161Z" fill="#BEBEBE"/>
</svg>
