<svg width="48" height="48" viewBox="0 0 48 48" fill="none" xmlns="http://www.w3.org/2000/svg">
<path d="M26.8782 19.5946C27.4432 20.0954 28.186 20.4 28.9988 20.4C30.7638 20.4 32.1988 18.964 32.1988 17.2C32.1988 15.436 30.7638 14 28.9988 14C27.2338 14 25.7988 15.436 25.7988 17.2C25.7988 17.4288 25.823 17.652 25.8688 17.8674L20.3196 21.1043C19.7548 20.604 19.0124 20.2998 18.2 20.2998C16.435 20.2998 15 21.7358 15 23.4998C15 25.2638 16.435 26.6988 18.2 26.6988C19.0128 26.6988 19.7556 26.3945 20.3205 25.8939L25.8698 29.1284C25.8233 29.3451 25.7988 29.5698 25.7988 29.8001C25.7988 31.5641 27.2338 33.0001 28.9988 33.0001C30.7638 33.0001 32.1988 31.5641 32.1988 29.8001C32.1988 28.0361 30.7638 26.6001 28.9988 26.6001C28.1874 26.6001 27.4457 26.9036 26.8811 27.403L21.3301 24.1668C21.3759 23.9516 21.4 23.7284 21.4 23.4998C21.4 23.2705 21.3758 23.0468 21.3297 22.8311L26.8782 19.5946Z" fill="#474747"/>
</svg>
