<svg width="79" height="79" viewBox="0 0 79 79" fill="none" xmlns="http://www.w3.org/2000/svg">
<rect width="79" height="79" rx="11" fill="#FBEAEF"/>
<path fill-rule="evenodd" clip-rule="evenodd" d="M45.198 37.3592H33.802C32.974 37.3592 32.302 36.6872 32.302 35.8592C32.302 35.0312 32.974 34.3592 33.802 34.3592H45.198C46.026 34.3592 46.698 35.0312 46.698 35.8592C46.698 36.6872 46.026 37.3592 45.198 37.3592ZM45.198 44.6392H33.802C32.974 44.6392 32.302 43.9672 32.302 43.1392C32.302 42.3112 32.974 41.6392 33.802 41.6392H45.198C46.026 41.6392 46.698 42.3112 46.698 43.1392C46.698 43.9672 46.026 44.6392 45.198 44.6392ZM56.522 30.1332C55.132 30.1332 54 29.0032 54 27.6132V27.4032C54 26.2792 53.088 25.3672 51.966 25.3672H27.036C25.912 25.3672 25 26.2792 25 27.4032V27.6132C25 29.0032 23.87 30.1332 22.48 30.1332C21.388 30.1332 20.5 31.0212 20.5 32.1132V46.8912C20.5 47.9812 21.388 48.8692 22.48 48.8692C23.87 48.8692 25 49.9992 25 51.3912V51.6012C25 52.7232 25.912 53.6372 27.036 53.6372H51.966C53.088 53.6372 54 52.7232 54 51.6012V51.3912C54 49.9992 55.132 48.8692 56.522 48.8692C57.614 48.8692 58.5 47.9812 58.5 46.8912V32.1132C58.5 31.0212 57.614 30.1332 56.522 30.1332Z" fill="#A90730"/>
<path fill-rule="evenodd" clip-rule="evenodd" d="M45.198 37.3592H33.802C32.974 37.3592 32.302 36.6872 32.302 35.8592C32.302 35.0312 32.974 34.3592 33.802 34.3592H45.198C46.026 34.3592 46.698 35.0312 46.698 35.8592C46.698 36.6872 46.026 37.3592 45.198 37.3592ZM45.198 44.6392H33.802C32.974 44.6392 32.302 43.9672 32.302 43.1392C32.302 42.3112 32.974 41.6392 33.802 41.6392H45.198C46.026 41.6392 46.698 42.3112 46.698 43.1392C46.698 43.9672 46.026 44.6392 45.198 44.6392ZM56.522 30.1332C55.132 30.1332 54 29.0032 54 27.6132V27.4032C54 26.2792 53.088 25.3672 51.966 25.3672H27.036C25.912 25.3672 25 26.2792 25 27.4032V27.6132C25 29.0032 23.87 30.1332 22.48 30.1332C21.388 30.1332 20.5 31.0212 20.5 32.1132V46.8912C20.5 47.9812 21.388 48.8692 22.48 48.8692C23.87 48.8692 25 49.9992 25 51.3912V51.6012C25 52.7232 25.912 53.6372 27.036 53.6372H51.966C53.088 53.6372 54 52.7232 54 51.6012V51.3912C54 49.9992 55.132 48.8692 56.522 48.8692C57.614 48.8692 58.5 47.9812 58.5 46.8912V32.1132C58.5 31.0212 57.614 30.1332 56.522 30.1332Z" fill="#A90730"/>
</svg>
