<svg width="79" height="79" viewBox="0 0 79 79" fill="none" xmlns="http://www.w3.org/2000/svg">
<rect width="79" height="79" rx="11" fill="#FBEAEF"/>
<path fill-rule="evenodd" clip-rule="evenodd" d="M49.9976 55.75C47.2176 55.75 44.8776 53.79 44.2976 51.19C44.1976 50.77 44.1576 50.35 44.1576 49.91C44.1576 46.71 46.7776 44.09 49.9976 44.09C50.4376 44.09 50.8576 44.13 51.2576 44.23C53.8576 44.81 55.8176 47.13 55.8176 49.91C55.8176 53.13 53.2176 55.75 49.9976 55.75ZM40.9776 35.41C40.3976 34.83 40.3976 33.87 40.9776 33.29C41.5776 32.71 42.5176 32.71 43.1176 33.29L46.6376 36.81C47.2176 37.41 47.2176 38.35 46.6376 38.93C46.3376 39.23 45.9576 39.37 45.5776 39.37C45.1976 39.37 44.7976 39.23 44.5176 38.93L40.9776 35.41ZM54.5376 42.37L54.9776 41.93C56.2976 40.61 56.9576 39.95 57.3976 39.15C58.4576 37.23 58.4576 34.95 57.3976 33.03C56.9776 32.25 56.3176 31.59 54.9376 30.19C54.6376 29.91 54.4776 29.75 54.3176 29.65C53.7776 29.29 53.5176 29.21 52.8376 29.29C52.7176 29.29 52.3176 29.41 51.4376 29.67C50.6776 29.91 49.8576 29.71 49.2976 29.15C48.7176 28.57 48.5176 27.77 48.7576 26.99C49.0176 26.15 49.1376 25.73 49.1576 25.59C49.2176 24.95 49.1576 24.65 48.7976 24.13C48.7176 24.01 48.5576 23.83 48.1776 23.45C46.8576 22.13 46.1976 21.47 45.4176 21.03C43.4976 19.99 41.1976 19.99 39.2776 21.03C38.4976 21.47 37.8376 22.13 36.4976 23.47L34.8776 25.09L39.0576 29.29C39.6576 29.87 39.6576 30.83 39.0576 31.41C38.7776 31.71 38.3776 31.85 37.9976 31.85C37.6176 31.85 37.2376 31.71 36.9376 31.41L32.7576 27.23L23.4176 36.55C22.1176 37.83 21.4176 38.55 20.9776 39.35C19.9176 41.27 19.9176 43.55 20.9776 45.47C21.4176 46.27 22.0776 46.93 23.4176 48.27C23.7576 48.61 23.9376 48.77 24.0776 48.85C24.5976 49.21 24.8776 49.29 25.5176 49.21C25.6376 49.21 26.0376 49.09 26.9176 48.83C27.6976 48.59 28.4976 48.79 29.1176 49.41C29.6376 49.95 29.8176 50.73 29.5576 51.63C29.2976 52.51 29.2376 52.75 29.2176 52.95C29.1576 53.61 29.2176 53.85 29.5776 54.37C29.6576 54.49 29.8176 54.67 30.1776 55.03C31.4976 56.37 32.1576 57.03 32.9576 57.47C33.9176 57.99 34.9776 58.25 36.0176 58.25C37.0776 58.25 38.1376 57.99 39.0976 57.47C39.8776 57.03 40.5576 56.37 41.8776 55.03L42.4376 54.47C43.9576 57.03 46.7776 58.75 49.9976 58.75C54.8576 58.75 58.8176 54.79 58.8176 49.91C58.8176 46.71 57.0976 43.89 54.5376 42.37Z" fill="#A90730"/>
<path fill-rule="evenodd" clip-rule="evenodd" d="M52.8348 48.4162H51.4948V47.0742C51.4948 46.2462 50.8228 45.5742 49.9948 45.5742C49.1668 45.5742 48.4948 46.2462 48.4948 47.0742V48.4182H47.1488C46.3208 48.4182 45.6488 49.0902 45.6488 49.9182C45.6488 50.7462 46.3208 51.4182 47.1488 51.4182H48.4948V52.7602C48.4948 53.5882 49.1668 54.2602 49.9948 54.2602C50.8228 54.2602 51.4948 53.5882 51.4948 52.7602V51.4162H52.8368C53.6648 51.4162 54.3348 50.7442 54.3348 49.9162C54.3348 49.0882 53.6648 48.4162 52.8348 48.4162Z" fill="#A90730"/>
<path fill-rule="evenodd" clip-rule="evenodd" d="M49.9976 55.75C47.2176 55.75 44.8776 53.79 44.2976 51.19C44.1976 50.77 44.1576 50.35 44.1576 49.91C44.1576 46.71 46.7776 44.09 49.9976 44.09C50.4376 44.09 50.8576 44.13 51.2576 44.23C53.8576 44.81 55.8176 47.13 55.8176 49.91C55.8176 53.13 53.2176 55.75 49.9976 55.75ZM40.9776 35.41C40.3976 34.83 40.3976 33.87 40.9776 33.29C41.5776 32.71 42.5176 32.71 43.1176 33.29L46.6376 36.81C47.2176 37.41 47.2176 38.35 46.6376 38.93C46.3376 39.23 45.9576 39.37 45.5776 39.37C45.1976 39.37 44.7976 39.23 44.5176 38.93L40.9776 35.41ZM54.5376 42.37L54.9776 41.93C56.2976 40.61 56.9576 39.95 57.3976 39.15C58.4576 37.23 58.4576 34.95 57.3976 33.03C56.9776 32.25 56.3176 31.59 54.9376 30.19C54.6376 29.91 54.4776 29.75 54.3176 29.65C53.7776 29.29 53.5176 29.21 52.8376 29.29C52.7176 29.29 52.3176 29.41 51.4376 29.67C50.6776 29.91 49.8576 29.71 49.2976 29.15C48.7176 28.57 48.5176 27.77 48.7576 26.99C49.0176 26.15 49.1376 25.73 49.1576 25.59C49.2176 24.95 49.1576 24.65 48.7976 24.13C48.7176 24.01 48.5576 23.83 48.1776 23.45C46.8576 22.13 46.1976 21.47 45.4176 21.03C43.4976 19.99 41.1976 19.99 39.2776 21.03C38.4976 21.47 37.8376 22.13 36.4976 23.47L34.8776 25.09L39.0576 29.29C39.6576 29.87 39.6576 30.83 39.0576 31.41C38.7776 31.71 38.3776 31.85 37.9976 31.85C37.6176 31.85 37.2376 31.71 36.9376 31.41L32.7576 27.23L23.4176 36.55C22.1176 37.83 21.4176 38.55 20.9776 39.35C19.9176 41.27 19.9176 43.55 20.9776 45.47C21.4176 46.27 22.0776 46.93 23.4176 48.27C23.7576 48.61 23.9376 48.77 24.0776 48.85C24.5976 49.21 24.8776 49.29 25.5176 49.21C25.6376 49.21 26.0376 49.09 26.9176 48.83C27.6976 48.59 28.4976 48.79 29.1176 49.41C29.6376 49.95 29.8176 50.73 29.5576 51.63C29.2976 52.51 29.2376 52.75 29.2176 52.95C29.1576 53.61 29.2176 53.85 29.5776 54.37C29.6576 54.49 29.8176 54.67 30.1776 55.03C31.4976 56.37 32.1576 57.03 32.9576 57.47C33.9176 57.99 34.9776 58.25 36.0176 58.25C37.0776 58.25 38.1376 57.99 39.0976 57.47C39.8776 57.03 40.5576 56.37 41.8776 55.03L42.4376 54.47C43.9576 57.03 46.7776 58.75 49.9976 58.75C54.8576 58.75 58.8176 54.79 58.8176 49.91C58.8176 46.71 57.0976 43.89 54.5376 42.37Z" fill="#A90730"/>
<path fill-rule="evenodd" clip-rule="evenodd" d="M52.8348 48.4162H51.4948V47.0742C51.4948 46.2462 50.8228 45.5742 49.9948 45.5742C49.1668 45.5742 48.4948 46.2462 48.4948 47.0742V48.4182H47.1488C46.3208 48.4182 45.6488 49.0902 45.6488 49.9182C45.6488 50.7462 46.3208 51.4182 47.1488 51.4182H48.4948V52.7602C48.4948 53.5882 49.1668 54.2602 49.9948 54.2602C50.8228 54.2602 51.4948 53.5882 51.4948 52.7602V51.4162H52.8368C53.6648 51.4162 54.3348 50.7442 54.3348 49.9162C54.3348 49.0882 53.6648 48.4162 52.8348 48.4162Z" fill="#A90730"/>
</svg>
