<svg width="48" height="48" viewBox="0 0 48 48" fill="none" xmlns="http://www.w3.org/2000/svg">
<path d="M24.0078 43.4702C20.9678 43.4702 17.9279 42.7502 15.2279 41.3902C15.0279 41.2902 14.8879 41.3102 14.8479 41.3302C13.2279 41.7102 10.6279 42.3502 8.72785 42.8302C7.70785 43.0902 6.64785 42.8102 5.90785 42.0702C5.16785 41.3302 4.84783 40.2902 5.08783 39.2702C5.56783 37.2302 6.20783 34.3702 6.52783 32.9502C6.54783 32.8302 6.52787 32.7102 6.48787 32.6102C5.16787 29.7902 4.50781 26.8902 4.50781 23.9902C4.50781 18.1903 7.08783 12.7103 11.5878 8.99028C16.0678 5.27028 21.9478 3.77026 27.7078 4.85026C35.4878 6.31026 41.6878 12.5102 43.1478 20.2902C44.2278 26.0502 42.7278 31.9302 39.0078 36.4102C35.2678 40.9102 29.8078 43.4902 24.0078 43.4902V43.4702ZM14.9478 38.3102C15.5078 38.3102 16.0478 38.4502 16.5678 38.7102C18.8478 39.8702 21.4278 40.4702 23.9878 40.4702C28.8878 40.4702 33.5278 38.2902 36.6878 34.4702C39.8278 30.6702 41.1078 25.7102 40.1878 20.8102C38.9478 14.2302 33.7078 8.9903 27.1278 7.7703C22.2478 6.8503 17.2679 8.1303 13.4679 11.2703C9.66785 14.4303 7.46785 19.0703 7.46785 23.9702C7.46785 26.4302 8.02785 28.9102 9.16785 31.3302C9.50785 32.0502 9.58787 32.8302 9.42787 33.5902C9.10787 35.0102 8.46787 37.8902 7.98787 39.9302C9.88787 39.4302 12.5078 38.7702 14.1478 38.3902C14.4078 38.3302 14.6679 38.2902 14.9279 38.2902L14.9478 38.3102Z" fill="#A90730"/>
<path d="M27.9861 33.5258C25.3461 33.5258 22.2461 31.9258 19.1661 28.8658C14.2261 23.9258 13.066 18.9258 16.146 15.8458L16.406 15.5858C17.266 14.7458 18.426 14.3057 19.626 14.4257C20.8261 14.5257 21.8861 15.1458 22.5661 16.1458L23.4861 17.4658C24.5061 18.9058 24.4661 20.8058 23.4461 22.1858C24.1661 23.1658 24.8261 23.8858 25.7861 24.5858C27.1661 23.5458 29.0861 23.5058 30.5261 24.5258L31.8461 25.4458C32.8261 26.1258 33.4461 27.2058 33.5661 28.4058C33.6661 29.6058 33.2461 30.7658 32.3861 31.6058L32.1261 31.8658C30.9661 33.0058 29.5661 33.5858 27.9861 33.5858V33.5258ZM19.246 17.3858C19.046 17.3858 18.766 17.4457 18.506 17.6857L18.246 17.9458C16.126 20.0858 18.406 23.8858 21.2661 26.7458C24.0861 29.5658 27.8461 31.8258 29.9861 29.7058L30.2461 29.4458C30.5461 29.1458 30.5661 28.8058 30.5461 28.6258C30.5461 28.4458 30.4461 28.1058 30.1061 27.8658L28.7861 26.9458C28.3661 26.6458 27.8061 26.7058 27.4461 27.0458L26.9661 27.5058C26.4861 27.9858 25.7261 28.0858 25.1461 27.7258C22.8261 26.3458 21.6861 25.0058 20.2461 22.8458C19.846 22.2458 19.9261 21.4658 20.4261 20.9658L20.8861 20.4858C21.2461 20.1258 21.2861 19.5658 20.9861 19.1458L20.0661 17.8258C19.826 17.4858 19.486 17.4058 19.306 17.3858C19.286 17.3858 19.246 17.3858 19.206 17.3858H19.246Z" fill="#A90730"/>
</svg>
